<?xml version="1.0" encoding="UTF-8"?>
<svg width="29px" height="27px" viewBox="0 0 29 27" version="1.1" xmlns="http://www.w3.org/2000/svg" xmlns:xlink="http://www.w3.org/1999/xlink">
    <!-- Generator: Sketch 56.2 (81672) - https://sketch.com -->
    <title>shop</title>
    <desc>Created with Sketch.</desc>
    <defs>
        <polygon id="path-1" points="14.5492913 0 0.112932692 0 0.112932692 20.998125 28.9856499 20.998125 28.9856499 0 14.5492913 0"></polygon>
    </defs>
    <g id="Page-1" stroke="none" stroke-width="1" fill="none" fill-rule="evenodd">
        <g id="Drexel-Web" transform="translate(-1020.000000, -34.000000)">
            <g id="header">
                <g id="nav" transform="translate(651.000000, 33.000000)">
                    <g id="cart" transform="translate(365.000000, 0.000000)">
                        <g id="shop" transform="translate(4.000000, 1.000000)">
                            <g id="Group-3">
                                <mask id="mask-2" fill="white">
                                    <use xlink:href="#path-1"></use>
                                </mask>
                                <g id="Clip-2"></g>
                                <path d="M28.615262,3.515625 C28.3291659,3.185625 27.9169615,3.00375 27.4840529,3.00375 L6.66867548,3.00375 L6.38257933,1.2525 C6.25647115,0.526875 5.63157692,0 4.89751442,0 L1.50765144,0 C0.675713942,0 0,0.673125 0,1.501875 C0,2.32875 0.675713942,3.00375 1.50765144,3.00375 L3.61761058,3.00375 L6.41834135,19.745625 C6.43339904,19.81125 6.46351442,19.87125 6.48421875,19.929375 C6.51433413,20.01 6.52939183,20.083125 6.56515385,20.15625 C6.61785577,20.259375 6.68373317,20.34 6.74961058,20.428125 C6.79290144,20.48625 6.83807452,20.544375 6.88889423,20.595 C6.97735817,20.675625 7.08087981,20.735625 7.18251923,20.79375 C7.24275,20.821875 7.28604087,20.866875 7.35191827,20.889375 C7.52884615,20.955 7.71330288,20.998125 7.90340625,20.998125 L24.46875,20.998125 C25.2988053,20.998125 25.9764014,20.3325 25.9764014,19.49625 C25.9764014,18.669375 25.2988053,18.00375 24.46875,18.00375 L9.1833101,18.00375 L8.93297596,16.501875 L25.9764014,16.501875 C26.7255216,16.501875 27.3579447,15.9525 27.4689952,15.211875 L28.9691178,4.71 C29.0349952,4.276875 28.9013582,3.845625 28.615262,3.515625 Z M25.741125,5.998125 L25.313863,9.001875 L19.9552067,9.001875 L19.9552067,5.998125 L25.741125,5.998125 Z M13.924601,9.001875 L18.4475553,9.001875 L18.4475553,5.998125 L13.924601,5.998125 L13.924601,9.001875 Z M13.924601,13.498125 L18.4475553,13.498125 L18.4475553,10.50375 L13.924601,10.50375 L13.924601,13.498125 Z M12.4263606,5.998125 L12.4263606,9.001875 L7.90340625,9.001875 C7.82247115,9.001875 7.75659375,9.024375 7.6831875,9.045 L7.17499038,5.998125 L12.4263606,5.998125 Z M7.92599279,10.50375 L12.4263606,10.50375 L12.4263606,13.498125 L8.42666106,13.498125 L7.92599279,10.50375 Z M19.9552067,13.498125 L19.9552067,10.50375 L25.1011731,10.50375 L24.6663822,13.498125 L19.9552067,13.498125 Z" id="Fill-1" fill="#000000" mask="url(#mask-2)"></path>
                            </g>
                            <path d="M12.4263606,24.748125 C12.4263606,25.993125 11.4099663,26.99625 10.1601779,26.99625 C8.91791827,26.99625 7.90340625,25.993125 7.90340625,24.748125 C7.90340625,23.510625 8.91791827,22.5 10.1601779,22.5 C11.4099663,22.5 12.4263606,23.510625 12.4263606,24.748125 Z" id="Fill-4" fill="#000000"></path>
                            <path d="M25.9764014,24.748125 C25.9764014,25.993125 24.9618894,26.99625 23.7196298,26.99625 C22.4698413,26.99625 21.4534471,25.993125 21.4534471,24.748125 C21.4534471,23.510625 22.4698413,22.5 23.7196298,22.5 C24.9618894,22.5 25.9764014,23.510625 25.9764014,24.748125 Z" id="Fill-5" fill="#000000"></path>
                        </g>
                    </g>
                </g>
            </g>
        </g>
    </g>
</svg>